<svg width="60" height="60" viewBox="0 0 60 60" fill="none" xmlns="http://www.w3.org/2000/svg">
<g clip-path="url(#clip0_52_267)">
<path fill-rule="evenodd" clip-rule="evenodd" d="M4.6875 21.5625C4.6875 11.7263 13.5994 3.75 25.3125 3.75C34.6369 3.75 44.0625 11.7263 44.0625 21.5625C44.0625 31.4006 36.7031 39.375 25.3125 39.375C23.6381 39.375 20.145 39.1838 18.5869 38.8594L12.1875 43.125V36.48C7.61438 32.7694 4.6875 27.8138 4.6875 21.5625ZM19.0069 42.63C20.4637 42.8681 23.7769 43.125 25.3125 43.125C38.775 43.125 47.8125 33.1069 47.8125 21.3281C47.8125 9.54937 36.5194 0 25.3125 0C11.8331 0 0.9375 9.54937 0.9375 21.3281C0.9375 28.1531 3.53813 33.945 8.4375 38.1169V48.75L19.0069 42.63ZM51.4669 17.1356C51.5025 17.6719 51.5625 18.2044 51.5625 18.75C51.5625 19.9425 51.4462 21.1106 51.2794 22.2637C53.8031 25.2187 55.3125 28.86 55.3125 32.8125C55.3125 39.0638 51.5775 44.5519 45.9375 47.73V54.375L39.5381 50.1094C37.98 50.4338 36.3619 50.625 34.6875 50.625C29.8312 50.625 27.2512 49.1662 23.7262 46.7418C22.7044 46.8243 21.6731 46.875 20.625 46.875C19.8787 46.875 19.1475 46.8225 18.4125 46.7794C22.8769 51.1425 27.4669 53.9062 34.6875 53.9062C36.2231 53.9062 37.7212 53.7675 39.1781 53.5294L49.6875 60V49.3669C55.3875 45.4613 59.0625 39.4031 59.0625 32.5781C59.0625 26.4956 56.1356 21.0206 51.4669 17.1356ZM35.625 24.375C37.1794 24.375 38.4375 23.1169 38.4375 21.5625C38.4375 20.01 37.1794 18.75 35.625 18.75C34.0706 18.75 32.8125 20.01 32.8125 21.5625C32.8125 23.1169 34.0706 24.375 35.625 24.375ZM13.125 24.375C14.6794 24.375 15.9375 23.1169 15.9375 21.5625C15.9375 20.01 14.6794 18.75 13.125 18.75C11.5706 18.75 10.3125 20.01 10.3125 21.5625C10.3125 23.1169 11.5706 24.375 13.125 24.375ZM24.375 24.375C25.9294 24.375 27.1875 23.1169 27.1875 21.5625C27.1875 20.01 25.9294 18.75 24.375 18.75C22.8206 18.75 21.5625 20.01 21.5625 21.5625C21.5625 23.1169 22.8206 24.375 24.375 24.375Z" fill="#403E3E"/>
</g>
<defs>
<clipPath id="clip0_52_267">
<rect width="60" height="60" fill="white"/>
</clipPath>
</defs>
</svg>
