<svg width="60" height="60" viewBox="0 0 60 60" fill="none" xmlns="http://www.w3.org/2000/svg">
<path d="M52.5 11.2498C51.25 10.9397 49.2128 10.9283 47.5 10.9397C46.9272 10.9435 47.2735 10.9192 46.5 10.9397C44.4815 11.0027 42.5043 11.8416 42.5 14.2185C42.4957 16.7506 45 17.4998 47.5 17.4998C50 17.4998 52.5 18.0778 52.5 20.781C52.5 22.8125 50.4812 23.7026 47.9653 23.9974C45.9652 23.9974 45 24.0623 42.5 23.7498M47.5 25V27.5M47.5 7.5V10M32.5 7.5H18.0001C15.1998 7.5 13.7997 7.5 12.7301 8.04497C11.7893 8.52432 11.0244 9.28923 10.545 10.2301C10.0001 11.2996 10.0001 12.6997 10.0001 15.5V29.5C10.0001 32.3003 10.0001 33.7005 10.545 34.77C11.0244 35.7107 11.7893 36.4757 12.7301 36.955C13.7997 37.5 15.1998 37.5 18.0001 37.5H50M25 45H35M11.4722 52.5H48.528C50.671 52.5 51.7425 52.5 52.3877 52.0487C52.9512 51.6545 53.3277 51.0458 53.4282 50.3655C53.5432 49.5863 53.064 48.628 52.1058 46.7112L50.8168 44.1335C49.6128 41.7255 49.0108 40.5215 48.1128 39.6417C47.3185 38.864 46.3612 38.2725 45.3102 37.91C44.122 37.5 42.7758 37.5 40.0838 37.5H19.9165C17.2243 37.5 15.8782 37.5 14.6898 37.91C13.6389 38.2725 12.6817 38.864 11.8874 39.6417C10.9893 40.5215 10.3873 41.7255 9.18335 44.1335L7.8945 46.7112C6.9361 48.628 6.4569 49.5863 6.572 50.3655C6.6725 51.0458 7.0488 51.6545 7.6123 52.0487C8.25765 52.5 9.32915 52.5 11.4722 52.5Z" stroke="#403E3E" stroke-width="4" stroke-linecap="round" stroke-linejoin="round"/>
</svg>
