<svg width="60" height="60" viewBox="0 0 60 60" fill="none" xmlns="http://www.w3.org/2000/svg">
<path fill-rule="evenodd" clip-rule="evenodd" d="M56.25 46.875L43.125 37.5V15L56.25 5.625V46.875ZM39.375 35.625H33.75V16.875H39.375V35.625ZM30 35.625H15C11.2725 35.625 3.75 34.5338 3.75 26.25C3.75 17.9662 11.1488 16.7531 15 16.875H30V35.625ZM20.625 52.5C20.625 53.5369 19.785 54.375 18.75 54.375H16.875C15.84 54.375 15 53.5369 15 52.5V39.375H20.625V52.5ZM56.25 1.875L39.375 13.125H15C6.71625 13.125 0 17.9662 0 26.25C0 33.2494 4.76625 38.1356 11.25 39.375C11.3344 39.8812 11.25 54.375 11.25 54.375C11.25 56.445 12.93 58.125 15 58.125H20.625C22.695 58.125 24.375 56.445 24.375 54.375V39.375H39.375L56.25 50.625C58.32 50.625 60 48.945 60 46.875V5.625C60 3.555 58.32 1.875 56.25 1.875Z" fill="#403E3E"/>
</svg>
